<svg width="35" height="48" viewBox="0 0 35 48" fill="none" xmlns="http://www.w3.org/2000/svg">
<path d="M11.9467 12.1401H22.12V38.4747H11.9467V12.1401Z" fill="#222483"/>
<path d="M11.9467 39.9689H22.12V41.6498H11.9467V39.9689Z" fill="#222483"/>
<path d="M11.9467 43.144H22.12V47.2529C22.12 47.6655 21.7857 48 21.3733 48H12.6933C12.281 48 11.9467 47.6655 11.9467 47.2529V43.144Z" fill="#222483"/>
<path d="M11.9467 10.6459H22.12V7.28405C22.12 6.87144 21.7857 6.53696 21.3733 6.53696H12.6933C12.281 6.53696 11.9467 6.87144 11.9467 7.28405V10.6459Z" fill="#222483"/>
<path d="M24.8267 16.9961H35V38.4747H24.8267V16.9961Z" fill="#222483"/>
<path d="M24.8267 39.9689H35V41.6498H24.8267V39.9689Z" fill="#222483"/>
<path d="M24.8267 43.144H35V47.2529C35 47.6655 34.6657 48 34.2533 48H25.5733C25.161 48 24.8267 47.6655 24.8267 47.2529V43.144Z" fill="#222483"/>
<path d="M24.8267 15.6938H35V12.8872C35 12.4746 34.6657 12.1401 34.2533 12.1401H25.5733C25.161 12.1401 24.8267 12.4746 24.8267 12.8872V15.6938Z" fill="#222483"/>
<path d="M0 39.9689H10.1733V41.6498H0V39.9689Z" fill="#222483"/>
<path d="M0 5.0428H10.1733V7.28405H0V5.0428Z" fill="#222483"/>
<path d="M0 43.144H10.1733V47.2529C10.1733 47.6655 9.83904 48 9.42667 48H0.746666C0.334294 48 0 47.6655 0 47.2529V43.144Z" fill="#222483"/>
<path d="M0 3.26848H10.1733V0.747082C10.1733 0.33448 9.83904 0 9.42667 0H0.746666C0.334294 0 0 0.33448 0 0.747082V3.26848Z" fill="#222483"/>
<path d="M0 8.96498H10.1733V38.4747H0V8.96498Z" fill="#222483"/>
</svg>
